<svg aria-hidden="true" style="position: absolute; width: 0; height: 0; overflow: hidden;" version="1.1" xmlns="http://www.w3.org/2000/svg" xmlns:xlink="http://www.w3.org/1999/xlink">
<defs>
<symbol id="icon-cube" viewBox="0 0 28 32">
<path fill="#f0e714" style="fill: var(--color1, #f0e714)" d="M13.811 0.028c-0.162 0.037-0.299 0.080-0.432 0.132l0.021-0.007c-0.094 0.039-2.948 1.634-6.34 3.543-4.33 2.436-6.254 3.556-6.455 3.753-0.175 0.181-0.324 0.389-0.439 0.617l-0.007 0.014-0.159 0.348v14.599l0.185 0.377c0.102 0.207 0.302 0.492 0.445 0.631 0.165 0.16 2.544 1.538 6.485 3.756 4.752 2.674 6.329 3.529 6.666 3.618 0.782 0.204 0.635 0.276 7.52-3.597 3.716-2.091 6.3-3.585 6.474-3.745 0.159-0.147 0.375-0.44 0.48-0.652l0.189-0.387v-14.598l-0.162-0.357c-0.129-0.252-0.289-0.468-0.479-0.653l-0.001-0.001c-0.218-0.204-2.253-1.383-6.486-3.76-3.393-1.904-6.249-3.496-6.347-3.538-0.252-0.107-0.875-0.156-1.159-0.092zM19.624 5.217c2.929 1.644 5.361 3.026 5.405 3.067 0.060 0.058-1.266 0.841-5.232 3.093-2.922 1.658-5.357 3.026-5.412 3.038-0.117 0.027-11.003-6.027-10.977-6.103 0.025-0.072 10.688-6.076 10.8-6.082 0.050-0.003 2.486 1.342 5.415 2.987zM8.156 13.533c2.789 1.555 5.076 2.83 5.082 2.836 0.027 0.028-0.108 12.195-0.135 12.222-0.018 0.018-2.487-1.349-5.488-3.037l-5.455-3.069v-12.3l0.462 0.261c0.255 0.144 2.746 1.533 5.535 3.088zM26.285 16.367v6.121l-5.455 3.069c-3 1.687-5.465 3.058-5.479 3.044-0.041-0.041 0.089-12.194 0.132-12.236 0.062-0.062 10.693-6.109 10.751-6.115 0.028-0.003 0.052 2.75 0.052 6.117z"></path>
</symbol>
<symbol id="icon-globe" viewBox="0 0 31 32">
<path fill="#f0e714" style="fill: var(--color1, #f0e714)" d="M13.911 0.081c-6.179 0.642-11.474 5.023-13.25 10.962-2.802 9.369 3.614 18.943 13.352 19.922 5.101 0.514 10.245-1.626 13.506-5.617 2.186-2.653 3.511-6.086 3.511-9.828s-1.325-7.175-3.532-9.854l0.021 0.027c-3.277-4.011-8.46-6.148-13.608-5.613zM16.273 2.991c1.221 0.623 2.444 2.766 3.168 5.553 0.139 0.533 0.252 0.979 0.253 0.989s-1.881 0.019-4.179 0.019h-4.181l0.047-0.207c0.425-1.899 1.166-3.792 1.922-4.907 0.999-1.474 1.983-1.954 2.971-1.45zM10.95 3.701c-0.715 1.216-1.255 2.624-1.742 4.544l-0.322 1.269-5.079 0.039 0.242-0.43c1.32-2.306 3.24-4.138 5.549-5.315l0.075-0.035c0.522-0.263 1.439-0.661 1.641-0.712 0.008-0.002-0.155 0.286-0.364 0.64zM21.117 3.638c1.995 0.906 4.047 2.688 5.35 4.645 0.345 0.518 0.691 1.134 0.691 1.229 0 0.021-1.142 0.040-2.538 0.040-2.395 0-2.538-0.008-2.538-0.135 0-0.074-0.115-0.602-0.256-1.175-0.433-1.758-1.045-3.35-1.744-4.538l-0.376-0.639 0.461 0.176c0.252 0.097 0.681 0.275 0.949 0.398zM8.477 12.481c-0.092 0.702-0.092 5.38 0 6.082l0.070 0.541h-5.647l-0.073-0.191c-0.324-0.853-0.524-3.338-0.376-4.697 0.084-0.788 0.325-2.055 0.417-2.204 0.027-0.045 1.135-0.072 2.862-0.072h2.817l-0.070 0.541zM20.103 12.108c0.076 0.346 0.189 2.399 0.189 3.428s-0.102 2.824-0.188 3.326l-0.042 0.242h-9.096l-0.037-0.168c-0.077-0.349-0.189-2.401-0.189-3.429 0.001-1.051 0.113-3.071 0.188-3.4l0.039-0.168h9.099l0.037 0.168zM28.258 12.35c0.278 1.112 0.347 1.743 0.347 3.171 0 1.43-0.069 2.061-0.346 3.173l-0.093 0.372-5.681 0.039 0.071-0.541c0.092-0.704 0.092-5.381 0-6.084l-0.071-0.542 5.681 0.039 0.093 0.373zM9.209 22.798c0.486 1.918 1.028 3.329 1.739 4.538l0.374 0.636-0.495-0.186c-2.768-1.041-5.27-3.206-6.775-5.866l-0.243-0.431 5.080 0.040 0.321 1.268zM19.669 21.622c-0.020 0.072-0.143 0.533-0.273 1.026-0.708 2.702-1.912 4.778-3.142 5.419-0.215 0.109-0.469 0.173-0.738 0.173s-0.523-0.064-0.747-0.178l0.009 0.004c-1.238-0.646-2.502-2.85-3.186-5.557-0.105-0.417-0.207-0.815-0.228-0.887-0.035-0.123 0.198-0.13 4.152-0.13s4.187 0.007 4.152 0.13zM27.159 21.532c0 0.095-0.346 0.711-0.691 1.229-1.515 2.276-3.791 4.099-6.299 5.044l-0.461 0.175 0.376-0.64c0.698-1.188 1.311-2.78 1.744-4.538 0.141-0.572 0.256-1.101 0.256-1.175 0-0.126 0.143-0.135 2.538-0.135 1.396 0 2.538 0.019 2.538 0.041z"></path>
</symbol>
<symbol id="icon-graph" viewBox="0 0 33 32">
<path fill="#f0e714" style="fill: var(--color1, #f0e714)" d="M10.329 0.118c-0.279 0.061-0.815 0.262-1.191 0.447-1.667 0.824-2.785 2.635-2.785 4.514 0 2.849 2.458 5.206 5.283 5.065l0.641-0.031 0.53 1.185 0.531 1.185-0.508 0.548c-1.281 1.383-1.725 3.396-1.12 5.080 0.117 0.324 0.218 0.626 0.226 0.671 0.007 0.045-0.888 0.888-1.99 1.871l-2.005 1.79-0.616-0.305c-3.787-1.871-8.085 1.473-7.21 5.608 0.308 1.447 1.349 2.793 2.665 3.444 1.533 0.757 3.072 0.758 4.599 0.005 2.204-1.086 3.327-3.828 2.506-6.112-0.061-0.149-0.138-0.373-0.207-0.599l-0.019-0.073c-0.007-0.046 0.892-0.89 1.997-1.874l2.012-1.79 0.612 0.306c1.041 0.518 2.168 0.664 3.3 0.423 0.568-0.12 1.39-0.467 1.802-0.76 0.155-0.111 0.268-0.143 0.332-0.095 0.824 0.63 3.379 2.612 3.457 2.682 0.085 0.077 0.072 0.186-0.067 0.603-0.101 0.299-0.188 0.802-0.212 1.223-0.186 3.329 2.853 5.928 6.132 5.243 2.278-0.477 4.007-2.618 4.007-4.965 0-1.871-1.125-3.7-2.78-4.515-1.613-0.796-3.309-0.743-4.872 0.153-0.33 0.189-0.583 0.287-0.636 0.248-0.559-0.423-3.37-2.603-3.449-2.675-0.086-0.078-0.073-0.186 0.066-0.6 0.093-0.279 0.19-0.813 0.214-1.189l0.044-0.685 2.057-0.679 0.124 0.186c0.067 0.103 0.362 0.422 0.655 0.709 1.956 1.916 5.118 1.881 7.070-0.077 2.004-2.010 2.004-5.153 0-7.164-1.99-1.996-5.151-1.994-7.151 0.005-0.935 0.935-1.5 2.25-1.504 3.499l-0.002 0.44-2.079 0.686-0.123-0.187c-0.068-0.103-0.367-0.425-0.666-0.717-0.896-0.868-2.119-1.403-3.467-1.403-0.078 0-0.156 0.002-0.233 0.005l0.011-0-0.64 0.032-1.061-2.37 0.508-0.548c1.891-2.043 1.843-5.106-0.113-7.066-0.916-0.924-2.186-1.496-3.589-1.496-0.385 0-0.76 0.043-1.121 0.125l0.034-0.006zM12.207 2.664c0.607 0.196 1.115 0.627 1.442 1.222 0.263 0.479 0.284 0.566 0.283 1.191-0.001 0.615-0.025 0.719-0.271 1.176-0.299 0.557-0.549 0.798-1.148 1.109-0.347 0.181-0.504 0.211-1.081 0.211-0.551-0.001-0.747-0.036-1.073-0.194-0.808-0.399-1.372-1.184-1.45-2.109l-0.001-0.010c-0.145-1.773 1.599-3.145 3.299-2.596zM28.728 10.29c0.607 0.196 1.114 0.626 1.442 1.221 0.263 0.479 0.283 0.566 0.282 1.191 0 0.616-0.025 0.719-0.27 1.177-0.301 0.557-0.551 0.798-1.149 1.107-0.335 0.174-0.514 0.211-1.041 0.215-1.203 0.008-2.071-0.607-2.45-1.737-0.646-1.922 1.241-3.802 3.186-3.173zM17.29 14.101c0.642 0.206 1.129 0.63 1.449 1.256 0.251 0.494 0.277 0.606 0.274 1.188-0.003 0.513-0.041 0.716-0.19 1.001-0.31 0.597-0.609 0.914-1.132 1.196-0.459 0.248-0.557 0.269-1.176 0.267-0.812-0.003-1.282-0.196-1.8-0.737-0.438-0.456-0.673-0.968-0.723-1.572-0.143-1.773 1.601-3.148 3.299-2.601zM28.728 22.996c0.607 0.196 1.114 0.626 1.442 1.222 0.263 0.478 0.283 0.565 0.282 1.191 0 0.615-0.025 0.719-0.27 1.176-0.3 0.557-0.55 0.798-1.149 1.109-0.346 0.18-0.504 0.211-1.081 0.21-0.551 0-0.747-0.036-1.071-0.193-1.13-0.548-1.727-1.885-1.352-3.032 0.448-1.373 1.86-2.116 3.2-1.683zM6.147 24.382c0.481 0.228 0.942 0.692 1.218 1.223 0.177 0.339 0.209 0.504 0.211 1.076 0.001 0.618-0.021 0.717-0.268 1.176-0.3 0.557-0.549 0.798-1.148 1.109-0.347 0.18-0.505 0.211-1.081 0.21-0.551 0-0.748-0.036-1.073-0.193-2.065-1.001-1.891-3.927 0.279-4.715 0.5-0.181 1.347-0.129 1.862 0.116z"></path>
</symbol>
<symbol id="icon-slack" viewBox="0 0 32 32">
<path fill="#f0e714" style="fill: var(--color1, #f0e714)" d="M11.23 0.117c-0.275 0.059-0.793 0.252-1.152 0.429-2.292 1.132-3.333 4.040-2.274 6.353 0.057 0.113 0.123 0.263 0.182 0.417l0.013 0.038c0 0.016-0.805 0.030-1.79 0.030-2.090 0.002-2.541 0.073-3.514 0.553-1.612 0.796-2.695 2.553-2.695 4.37 0 1.126 0.491 2.42 1.236 3.256l0.39 0.437-0.396 0.442c-1.711 1.913-1.612 4.881 0.224 6.718 1.443 1.442 3.644 1.861 5.445 1.036 0.234-0.107 0.439-0.195 0.455-0.195s0.030 0.805 0.030 1.79c0.002 2.090 0.073 2.541 0.553 3.514 0.796 1.612 2.553 2.695 4.37 2.695 1.139 0 2.416-0.483 3.25-1.23l0.443-0.395 0.442 0.395c1.913 1.711 4.881 1.612 6.718-0.224 1.442-1.443 1.861-3.644 1.036-5.445-0.057-0.113-0.123-0.264-0.182-0.417l-0.013-0.038c0-0.016 0.805-0.030 1.79-0.030 2.090-0.002 2.555-0.075 3.516-0.548 1.603-0.79 2.693-2.561 2.693-4.375 0-1.126-0.491-2.42-1.236-3.256l-0.39-0.437 0.396-0.442c1.711-1.913 1.612-4.881-0.224-6.718-1.443-1.442-3.644-1.861-5.445-1.036-0.113 0.057-0.263 0.123-0.417 0.182l-0.038 0.013c-0.016 0-0.030-0.805-0.030-1.79-0.002-2.090-0.073-2.541-0.553-3.514-0.8-1.62-2.543-2.695-4.37-2.695-1.126 0-2.42 0.491-3.256 1.236l-0.437 0.39-0.442-0.396c-1.126-1.007-2.808-1.44-4.328-1.113zM13.352 2.693c0.478 0.232 0.95 0.704 1.19 1.192 0.178 0.361 0.19 0.469 0.214 1.946l0.024 1.564-1.563-0.025c-1.477-0.024-1.585-0.036-1.947-0.214-1.37-0.674-1.832-2.332-1-3.595 0.317-0.454 0.761-0.801 1.279-0.991l0.019-0.006c0.47-0.154 1.327-0.092 1.784 0.129zM20.445 2.583c0.587 0.19 1.078 0.607 1.396 1.184l0.275 0.5v8.694l-0.262 0.485c-0.293 0.539-0.533 0.771-1.114 1.076-0.382 0.2-0.437 0.207-1.951 0.233l-1.558 0.028v-5.12c0-4.524 0.014-5.164 0.125-5.49 0.443-1.306 1.801-2.005 3.089-1.59zM13.059 9.97c0.587 0.19 1.078 0.607 1.396 1.184l0.276 0.5 0.026 1.56 0.026 1.561-10.516-0.043-0.384-0.19c-1.999-0.99-1.83-3.833 0.27-4.568 0.296-0.103 0.92-0.121 4.433-0.124 3.56-0.003 4.138 0.012 4.473 0.12zM28.124 10.080c0.478 0.232 0.95 0.704 1.19 1.191 0.27 0.55 0.27 1.524 0 2.074-0.24 0.488-0.71 0.958-1.199 1.198-0.36 0.178-0.47 0.19-1.94 0.213l-1.558 0.025v-1.416c0-0.975 0.033-1.526 0.105-1.766 0.221-0.735 0.88-1.407 1.618-1.648 0.47-0.154 1.327-0.092 1.784 0.129zM7.37 18.789c-0.024 1.47-0.036 1.58-0.214 1.94-0.24 0.489-0.71 0.959-1.198 1.2-0.315 0.154-0.498 0.187-1.037 0.187s-0.721-0.033-1.036-0.188c-1.371-0.674-1.833-2.332-1.001-3.595 0.29-0.44 0.814-0.841 1.298-0.993 0.208-0.065 0.814-0.1 1.764-0.104l1.448-0.005-0.024 1.558zM14.752 22.482l-0.021 5.25-0.263 0.486c-0.293 0.54-0.535 0.773-1.114 1.074-0.336 0.174-0.488 0.204-1.047 0.203-0.534 0-0.724-0.035-1.039-0.187-0.515-0.267-0.926-0.676-1.187-1.175l-0.007-0.015-0.19-0.385-0.022-4.193c-0.020-3.692-0.007-4.239 0.102-4.573 0.252-0.771 0.81-1.34 1.574-1.608 0.265-0.093 0.682-0.122 1.791-0.124l1.445-0.004-0.022 5.25zM27.831 17.355c0.587 0.19 1.078 0.606 1.396 1.184 0.256 0.465 0.275 0.546 0.272 1.154-0.002 0.554-0.034 0.714-0.207 1.047-0.301 0.579-0.534 0.82-1.075 1.114l-0.484 0.262h-8.694l-0.385-0.19c-0.514-0.27-0.924-0.679-1.186-1.179l-0.007-0.015c-0.18-0.364-0.192-0.468-0.216-1.943l-0.025-1.558h5.113c4.496 0 5.16 0.015 5.498 0.124zM20.73 24.844c0.488 0.24 0.958 0.71 1.198 1.198 0.155 0.315 0.188 0.498 0.188 1.037 0 0.77-0.18 1.222-0.69 1.733s-0.962 0.69-1.733 0.69c-0.538 0-0.722-0.033-1.037-0.188-0.516-0.271-0.927-0.683-1.191-1.184l-0.007-0.015c-0.178-0.361-0.19-0.469-0.214-1.946l-0.024-1.564 1.563 0.025c1.477 0.024 1.585 0.036 1.947 0.214z"></path>
</symbol>
<symbol id="icon-team" viewBox="0 0 32 32">
<path fill="#f0e714" style="fill: var(--color1, #f0e714)" d="M25.756 21.872c-0.763-0.764-1.656-1.397-2.643-1.864l-0.057-0.024c1.419-1.152 2.319-2.897 2.319-4.852 0-0.002 0-0.005 0-0.007v0c0-3.463-2.887-6.303-6.35-6.25-3.411 0.055-6.155 2.832-6.156 6.25v0c0 1.962 0.906 3.712 2.319 4.86-1.044 0.491-1.937 1.124-2.7 1.887l-0 0c-1.641 1.635-2.675 3.877-2.738 6.36l-0 0.012c-0 0.002-0 0.004-0 0.006 0 0.138 0.112 0.25 0.25 0.25 0 0 0 0 0 0h1.75c0 0 0.001 0 0.001 0 0.134 0 0.244-0.106 0.249-0.24v-0c0.059-1.881 0.845-3.567 2.084-4.798l0-0c1.283-1.289 3.058-2.087 5.020-2.087 0.007 0 0.014 0 0.022 0h-0.001c1.903 0 3.694 0.74 5.040 2.087 1.237 1.232 2.022 2.917 2.085 4.785l0 0.012c0.003 0.135 0.116 0.241 0.25 0.241h1.75c0.105-0.001 0.195-0.065 0.232-0.157l0.001-0.002c0.011-0.027 0.017-0.058 0.017-0.090 0-0.002-0-0.005-0-0.007v0c-0.062-2.497-1.099-4.739-2.743-6.371l-0.001-0.001zM19.125 19.125c-0.004 0-0.009 0-0.013 0-1.1 0-2.096-0.448-2.815-1.172l-0-0c-0.724-0.719-1.172-1.714-1.172-2.815 0-0.019 0-0.038 0-0.057l-0 0.003c0.012-1.071 0.442-2.039 1.135-2.751l-0.001 0.001c0.717-0.738 1.716-1.199 2.823-1.209h0.002c0.010-0 0.022-0 0.034-0 1.094 0 2.085 0.437 2.81 1.145l-0.001-0.001c0.741 0.722 1.2 1.729 1.2 2.844 0 0.004 0 0.008-0 0.013v-0.001c0 0.003 0 0.007 0 0.011 0 1.101-0.448 2.097-1.172 2.817l-0 0c-0.721 0.724-1.718 1.172-2.821 1.172-0.004 0-0.007 0-0.011 0h0.001zM11.297 15.95c-0.028-0.248-0.043-0.537-0.043-0.828 0-0.513 0.049-1.014 0.141-1.499l-0.008 0.050c0.003-0.014 0.004-0.030 0.004-0.047 0-0.1-0.058-0.187-0.143-0.227l-0.002-0.001c-0.446-0.202-0.827-0.465-1.154-0.785l0.001 0.001c-0.748-0.725-1.212-1.739-1.212-2.862 0-0.042 0.001-0.084 0.002-0.126l-0 0.006c0.030-1.044 0.457-1.983 1.136-2.676l-0.001 0.001c0.724-0.747 1.737-1.21 2.858-1.21 0.019 0 0.038 0 0.057 0l-0.003-0c1.391 0.014 2.61 0.736 3.316 1.822l0.009 0.016c0.045 0.069 0.122 0.113 0.209 0.113 0.029 0 0.057-0.005 0.082-0.014l-0.002 0.001c0.502-0.181 1.088-0.318 1.694-0.384l0.035-0.003c0.127-0.013 0.225-0.12 0.225-0.249 0-0.042-0.010-0.081-0.028-0.116l0.001 0.001c-1.041-2.026-3.101-3.396-5.485-3.434l-0.005-0c-3.466-0.053-6.354 2.787-6.354 6.247 0 1.962 0.903 3.712 2.319 4.86-1.046 0.49-1.94 1.123-2.703 1.887l-0 0c-1.645 1.633-2.683 3.877-2.744 6.364l-0 0.011c-0 0.002-0 0.004-0 0.006 0 0.138 0.112 0.25 0.25 0.25 0 0 0 0 0 0h1.753c0 0 0.001 0 0.001 0 0.134 0 0.244-0.106 0.249-0.24v-0c0.059-1.881 0.845-3.567 2.085-4.798l0-0c0.876-0.881 1.983-1.532 3.222-1.854l0.049-0.011c0.11-0.028 0.19-0.126 0.19-0.243 0-0.010-0.001-0.021-0.002-0.031l0 0.001z"></path>
</symbol>
<symbol id="icon-arrowright" viewBox="0 0 32 32">
<path fill="none" stroke="#636770" style="stroke: var(--color2, #636770)" stroke-linejoin="round" stroke-linecap="round" stroke-miterlimit="4" stroke-width="1.3333" d="M16 29.333c7.364 0 13.333-5.969 13.333-13.333s-5.969-13.333-13.333-13.333-13.333 5.969-13.333 13.333 5.969 13.333 13.333 13.333z"></path>
<path fill="none" stroke="#636770" style="stroke: var(--color2, #636770)" stroke-linejoin="round" stroke-linecap="round" stroke-miterlimit="4" stroke-width="1.3333" d="M16 21.333l5.333-5.333-5.333-5.333M10.667 16h10.667"></path>
</symbol>
<symbol id="icon-arrowleft" viewBox="0 0 32 32">
<path fill="none" stroke="#828282" style="stroke: var(--color3, #828282)" stroke-linejoin="round" stroke-linecap="round" stroke-miterlimit="4" stroke-width="1.3333" d="M16 29.333c-7.364 0-13.333-5.969-13.333-13.333s5.969-13.333 13.333-13.333 13.333 5.969 13.333 13.333-5.969 13.333-13.333 13.333z"></path>
<path fill="none" stroke="#828282" style="stroke: var(--color3, #828282)" stroke-linejoin="round" stroke-linecap="round" stroke-miterlimit="4" stroke-width="1.3333" d="M16 21.333l-5.333-5.333 5.333-5.333M21.333 16h-10.667"></path>
</symbol>
<symbol id="icon-support" viewBox="0 0 32 32">
<path fill="#f0e714" style="fill: var(--color1, #f0e714)" d="M16 2.667c-7.352 0-13.333 5.979-13.333 13.333v5.524c0 1.365 1.196 2.476 2.667 2.476h1.333c0.736 0 1.333-0.597 1.333-1.333 0-0 0-0.001 0-0.001v0-6.856c0-0.736-0.597-1.333-1.333-1.333v0h-1.21c0.74-5.16 5.18-9.143 10.543-9.143s9.803 3.983 10.544 9.143h-1.21c-0 0-0.001 0-0.001 0-0.736 0-1.332 0.596-1.333 1.332v8.191c-0.001 1.472-1.194 2.666-2.666 2.668h-2.667v-1.334h-5.333v4h8c2.944-0.003 5.33-2.39 5.333-5.334v-0c1.47 0 2.667-1.11 2.667-2.476v-5.524c0-7.352-5.982-13.334-13.334-13.334z"></path>
</symbol>
<symbol id="icon-location" viewBox="0 0 32 32">
<path d="M15.998 28c-1.697-1.453-3.225-2.993-4.619-4.648l-0.049-0.060c-2.13-2.548-4.666-6.342-4.666-9.96-0.001-0.041-0.001-0.089-0.001-0.137 0-5.155 4.179-9.334 9.334-9.334s9.334 4.179 9.334 9.334c0 0.048-0 0.096-0.001 0.144l0-0.007c0 3.618-2.532 7.412-4.666 9.96-1.443 1.715-2.97 3.255-4.612 4.663l-0.054 0.045zM15.998 9.334c-2.209 0-4 1.791-4 4s1.791 4 4 4v0c2.209 0 4-1.791 4-4s-1.791-4-4-4v0z"></path>
</symbol>
<symbol id="icon-dropbox" viewBox="0 0 161 32">
<path fill="#b9b9b9" style="fill: var(--color4, #b9b9b9)" d="M18.672 6.013l-9.336 6.013 9.336 6.013-9.336 6.013-9.336-6.045 9.336-6.013-9.336-5.982 9.336-6.012 9.336 6.013zM9.288 25.988l9.336-6.013 9.336 6.012-9.336 6.013-9.336-6.013zM18.672 18.007l9.336-6.012-9.336-5.983 9.288-6.012 9.336 6.013-9.336 6.013 9.336 6.013-9.336 6.013-9.288-6.045zM44.622 6.013h7.548c4.813 0 8.789 2.812 8.789 9.232v1.348c0 6.469-3.719 9.378-8.645 9.378h-7.694v-19.956zM48.839 9.637v12.693h3.234c2.736 0 4.572-1.804 4.572-5.818v-1.057c0-4.015-1.932-5.818-4.717-5.818h-3.090zM63.197 9.833h3.38l0.547 3.754c0.644-2.551 2.287-3.917 5.264-3.917h1.046v4.306h-1.739c-3.429 0-4.267 1.202-4.267 4.616v7.428h-4.169v-16.187h-0.064zM74.271 18.251v-0.456c0-5.411 3.43-8.368 8.097-8.368 4.765 0 8.097 2.958 8.097 8.368v0.456c0 5.314-3.235 8.175-8.097 8.175-5.167-0.049-8.097-2.844-8.097-8.175zM86.199 18.202v-0.407c0-3.006-1.496-4.81-3.879-4.81-2.334 0-3.879 1.658-3.879 4.81v0.407c0 2.909 1.496 4.567 3.879 4.567 2.383-0.049 3.879-1.658 3.879-4.567zM92.655 9.833h3.477l0.402 3.055c0.837-2.047 2.623-3.462 5.263-3.462 4.073 0 6.761 2.958 6.761 8.435v0.456c0 5.314-2.978 8.126-6.761 8.126-2.527 0-4.266-1.154-5.119-3.007v8.175h-4.073l0.049-21.777zM104.325 18.201v-0.357c0-3.217-1.642-4.81-3.831-4.81-2.334 0-3.879 1.804-3.879 4.81v0.309c0 2.861 1.496 4.664 3.83 4.664 2.399-0.049 3.88-1.593 3.88-4.616zM114.724 23.029l-0.355 2.958h-3.573v-21.566h4.073v8.271c0.902-2.112 2.688-3.266 5.215-3.266 3.831 0.049 6.665 2.714 6.665 8.078v0.503c0 5.362-2.688 8.434-6.761 8.434-2.688-0.065-4.427-1.317-5.263-3.413zM122.466 18.006v-0.405c0-2.958-1.593-4.616-3.831-4.616-2.286 0-3.879 1.852-3.879 4.664v0.358c0 3.006 1.545 4.761 3.831 4.761 2.447 0 3.879-1.544 3.879-4.761zM128.534 18.251v-0.456c0-5.411 3.429-8.368 8.097-8.368 4.765 0 8.097 2.958 8.097 8.368v0.456c0 5.314-3.283 8.175-8.097 8.175-5.167-0.049-8.097-2.844-8.097-8.175zM140.495 18.202v-0.407c0-3.006-1.497-4.81-3.879-4.81-2.334 0-3.88 1.658-3.88 4.81v0.407c0 2.909 1.497 4.567 3.88 4.567 2.398-0.049 3.879-1.658 3.879-4.567zM150.185 17.601l-5.617-7.768h4.813l3.236 4.858 3.283-4.858h4.765l-5.698 7.719 6.003 8.436h-4.716l-3.67-5.362-3.573 5.362h-4.926l6.1-8.386z"></path>
</symbol>
<symbol id="icon-ellipse" viewBox="0 0 32 32">
<path fill="#d2d2d2" style="fill: var(--color5, #d2d2d2)" d="M32 16c0 8.837-7.163 16-16 16s-16-7.163-16-16c0-8.837 7.163-16 16-16s16 7.163 16 16z"></path>
</symbol>
<symbol id="icon-google" viewBox="0 0 98 32">
<path fill="#b9b9b9" style="fill: var(--color4, #b9b9b9)" d="M41.913 16.84c0 4.604-3.629 7.996-8.081 7.996s-8.081-3.392-8.081-7.996c0-4.636 3.629-7.996 8.081-7.996s8.081 3.36 8.081 7.996zM38.376 16.84c0-2.877-2.103-4.846-4.544-4.846s-4.544 1.969-4.544 4.846c0 2.848 2.103 4.846 4.544 4.846s4.544-2.001 4.544-4.846zM59.347 16.84c0 4.604-3.629 7.997-8.081 7.997s-8.082-3.394-8.082-7.997c0-4.632 3.629-7.996 8.082-7.996s8.081 3.36 8.081 7.996zM55.81 16.84c0-2.877-2.104-4.846-4.544-4.846-2.442 0-4.544 1.969-4.544 4.846 0 2.848 2.102 4.846 4.544 4.846s4.543-2 4.543-4.846zM76.055 9.327v14.355c0 5.905-3.509 8.318-7.657 8.318-3.905 0-6.255-2.593-7.141-4.713l3.080-1.272c0.549 1.301 1.892 2.837 4.057 2.837 2.655 0 4.301-1.626 4.301-4.687v-1.15h-0.123c-0.792 0.97-2.318 1.816-4.242 1.816-4.028 0-7.719-3.482-7.719-7.963 0-4.514 3.691-8.025 7.719-8.025 1.921 0 3.446 0.847 4.242 1.788h0.123v-1.301h3.36v-0.004zM72.945 16.869c0-2.816-1.892-4.875-4.301-4.875-2.441 0-4.486 2.059-4.486 4.875 0 2.787 2.046 4.817 4.486 4.817 2.409 0 4.301-2.030 4.301-4.816zM81.593 0.911v23.435h-3.45v-23.434h3.45zM95.040 19.471l2.746 1.817c-0.886 1.302-3.022 3.544-6.712 3.544-4.577 0-7.994-3.511-7.994-7.996 0-4.755 3.447-7.997 7.599-7.997 4.18 0 6.225 3.303 6.894 5.087l0.368 0.909-10.769 4.428c0.824 1.604 2.106 2.422 3.904 2.422 1.802 0 3.052-0.88 3.966-2.213zM86.588 16.595l7.199-2.967c-0.396-0.999-1.587-1.695-2.989-1.695-1.799 0-4.301 1.576-4.21 4.662zM12.688 14.76v-3.392h11.518c0.113 0.591 0.171 1.29 0.171 2.047 0 2.545-0.701 5.692-2.96 7.935-2.197 2.272-5.006 3.483-8.724 3.483-6.895 0-12.691-5.575-12.691-12.417s5.797-12.416 12.691-12.416c3.814 0 6.53 1.486 8.572 3.421l-2.413 2.394c-1.464-1.362-3.446-2.422-6.163-2.422-5.035 0-8.972 4.026-8.972 9.023s3.937 9.024 8.972 9.024c3.265 0 5.125-1.301 6.317-2.483 0.966-0.96 1.602-2.329 1.852-4.201l-8.169 0.004z"></path>
</symbol>
<symbol id="icon-tell" viewBox="0 0 32 32">
<path d="M9.2 2.8l2.214-0.666c0.271-0.085 0.583-0.134 0.906-0.134 1.268 0 2.361 0.752 2.858 1.834l0.008 0.020 1.552 3.452c0.174 0.379 0.276 0.822 0.276 1.288 0 0.907-0.384 1.724-0.998 2.298l-0.002 0.002-2.36 2.2c-0.318 0.302-0.078 1.474 1.080 3.48 1.156 2.004 2.052 2.798 2.464 2.674l3.094-0.946c0.275-0.087 0.592-0.138 0.92-0.138 1.045 0 1.971 0.51 2.542 1.295l0.006 0.009 2.206 3.056c0.371 0.509 0.594 1.148 0.594 1.838 0 0.898-0.377 1.708-0.98 2.28l-0.001 0.001-1.704 1.616c-0.766 0.727-1.804 1.174-2.947 1.174-0.448 0-0.88-0.069-1.285-0.196l0.030 0.008c-3.572-1.094-6.88-4.34-9.97-9.69-3.096-5.36-4.266-9.882-3.45-13.576 0.345-1.525 1.466-2.723 2.918-3.172l0.030-0.008z"></path>
</symbol>
<symbol id="icon-amazon" viewBox="0 0 105 32">
<path fill="#b9b9b9" style="fill: var(--color4, #b9b9b9)" d="M65.138 25.025c-6.101 4.549-14.946 6.976-22.56 6.976-10.677 0-20.288-3.994-27.561-10.637-0.57-0.522-0.059-1.234 0.626-0.827 7.848 4.617 17.552 7.397 27.575 7.397 6.76 0 14.196-1.415 21.034-4.35 1.033-0.443 1.896 0.684 0.887 1.442z"></path>
<path fill="#b9b9b9" style="fill: var(--color4, #b9b9b9)" d="M67.676 22.090c0.782 1.012-0.869 5.177-1.605 7.035-0.224 0.564 0.256 0.791 0.759 0.366 3.277-2.768 4.118-8.57 3.451-9.406-0.666-0.832-6.389-1.549-9.877 0.933-0.538 0.379-0.448 0.906 0.151 0.832 1.966-0.235 6.344-0.767 7.12 0.24zM60.692 3.494c0 0.36 0.274 0.605 0.617 0.605h5.58l-6.411 9.299c-0.389 0.596-0.393 1.266-0.393 1.659v2.447c0 0.351 0.389 0.758 0.759 0.554 3.633-1.95 7.998-1.761 11.284-0.018 0.402 0.213 0.786-0.198 0.786-0.55v-2.575c-0.032-0.347-0.146-0.698-0.567-0.938-1.864-1.063-4.035-1.372-6.092-1.322l5.534-7.992c0.512-0.717 0.8-1.169 0.805-1.516v-2.066c0-0.36-0.274-0.61-0.617-0.61h-10.681c-0.329 0-0.603 0.244-0.603 0.61v2.413zM21.728 18.549c0.347 0 0.626-0.272 0.626-0.61v-8.94c0-1.95-0.092-4.65 2.244-4.65 2.309 0 2.002 2.769 2.002 4.65l0.004 8.94v0c0.004 0.326 0.261 0.592 0.585 0.609h3.246c0.347 0 0.626-0.272 0.626-0.61v-8.94c0-0.956-0.032-2.381 0.302-3.231s1.156-1.381 1.942-1.381c0.942 0 1.669 0.319 1.91 1.451 0.155 0.675 0.091 2.45 0.091 3.162v8.941c0.006 0.325 0.262 0.59 0.585 0.609h3.246c0.347 0 0.626-0.272 0.626-0.61l0.005-10.645c0-1.808 0.21-3.869-0.818-5.288-0.909-1.275-2.399-1.844-3.761-1.844-1.915 0-3.702 0.994-4.488 3.125-0.914-2.131-2.185-3.125-4.218-3.125-2.002 0-3.488 0.994-4.279 3.125h-0.058v-2.205c-0.023-0.305-0.274-0.55-0.59-0.564h-3.030c-0.005-0-0.010-0-0.014-0-0.336 0-0.609 0.271-0.613 0.606v16.865l0 0.002c0.029 0.301 0.274 0.54 0.58 0.557h3.251zM81.791 0.162c4.821 0 7.431 4.187 7.431 9.512 0 5.145-2.884 9.226-7.432 9.226-4.735 0-7.312-4.187-7.312-9.406 0-5.251 2.609-9.332 7.313-9.332zM81.819 3.605c-2.395 0-2.546 3.301-2.546 5.358 0 2.062-0.032 6.461 2.519 6.461 2.518 0 2.637-3.549 2.637-5.712 0-1.424-0.059-3.125-0.485-4.474-0.366-1.174-1.093-1.632-2.126-1.632zM95.475 18.549h-0c0.003 0 0.005 0 0.008 0 0.34 0 0.618-0.271 0.628-0.61v-9.082c0-1.137 0.059-2.163 0.517-3.194 0.36-0.814 1.087-1.349 1.878-1.349 2.245 0 2.034 2.699 2.034 4.544v9.161c0.032 0.286 0.279 0.508 0.576 0.531h3.258c0.003 0 0.005 0 0.008 0 0.312 0 0.571-0.229 0.619-0.531v-10.618c0-1.632 0-3.901-0.85-5.251-0.914-1.456-2.336-1.988-3.793-1.988-2.245 0-3.52 1.1-4.429 3.407h-0.059v-2.579c-0.064-0.263-0.297-0.458-0.581-0.472h-3.012c-0.004-0-0.009-0-0.013-0-0.317 0-0.579 0.24-0.614 0.551l0.005 16.871v0.001c0.006 0.325 0.262 0.59 0.585 0.609h3.237zM52.178 10.492v-0.711c-2.354 0-4.837 0.508-4.837 3.31 0 1.419 0.731 2.38 1.979 2.38 0.91 0 1.733-0.569 2.248-1.493 0.64-1.137 0.608-2.205 0.608-3.485zM55.455 18.503c-0.117 0.102-0.271 0.164-0.44 0.164-0.12 0-0.233-0.032-0.331-0.087l0.003 0.002c-1.079-0.906-1.275-1.327-1.865-2.192-1.783 1.84-3.048 2.39-5.357 2.39-2.737 0-4.863-1.706-4.863-5.122 0-2.667 1.426-4.484 3.465-5.37 1.765-0.786 4.228-0.924 6.11-1.143v-0.424c0-0.782 0.059-1.706-0.397-2.381-0.393-0.605-1.152-0.855-1.824-0.855-1.239 0-2.341 0.643-2.61 1.974-0.055 0.295-0.27 0.587-0.567 0.601l-3.149-0.342c-0.265-0.060-0.562-0.278-0.485-0.688 0.722-3.865 4.178-5.029 7.268-5.029 1.582 0 3.648 0.425 4.895 1.637 1.582 1.493 1.431 3.485 1.431 5.653v5.121c0 1.54 0.631 2.214 1.225 3.046 0.205 0.296 0.251 0.652-0.015 0.874-0.663 0.559-1.841 1.599-2.49 2.181l-0.005-0.009zM9.575 10.492v-0.711c-2.349 0-4.831 0.508-4.831 3.31 0 1.419 0.727 2.38 1.974 2.38 0.914 0 1.733-0.569 2.249-1.493 0.64-1.137 0.609-2.205 0.609-3.485zM12.852 18.503c-0.117 0.102-0.271 0.164-0.44 0.164-0.12 0-0.233-0.032-0.331-0.087l0.003 0.002c-1.079-0.906-1.271-1.327-1.864-2.192-1.783 1.84-3.045 2.39-5.357 2.39-2.734 0-4.863-1.706-4.863-5.122 0-2.667 1.431-4.484 3.465-5.37 1.764-0.786 4.227-0.924 6.11-1.143v-0.424c0-0.782 0.059-1.706-0.393-2.381-0.398-0.605-1.157-0.855-1.824-0.855-1.238 0-2.344 0.643-2.614 1.974-0.055 0.295-0.27 0.587-0.562 0.601l-3.154-0.342c-0.264-0.060-0.556-0.278-0.484-0.689 0.727-3.864 4.178-5.029 7.269-5.029 1.581 0 3.647 0.425 4.895 1.637 1.581 1.493 1.43 3.485 1.43 5.653v5.121c0 1.54 0.631 2.214 1.225 3.046 0.21 0.296 0.256 0.652-0.009 0.874-0.663 0.559-1.842 1.599-2.491 2.181l-0.009-0.009z"></path>
</symbol>
<symbol id="icon-linkedin" viewBox="0 0 32 32">
<path d="M18.432 31.315h-6.091v-19.614h5.788v2.62c0.060-0.062 0.122-0.062 0.122-0.062 1.28-2.069 3.168-2.985 5.542-3.046 1.34-0.060 2.679 0.124 3.898 0.732 1.585 0.732 2.498 2.069 2.987 3.716 0.427 1.34 0.546 2.679 0.546 4.019v11.514h-6.091v-10.052c0-0.73-0.060-1.461-0.183-2.191-0.363-2.012-1.705-2.682-3.531-2.438-1.707 0.183-2.62 1.22-2.925 3.046-0.122 0.67-0.122 1.34-0.122 2.010v9.199c0.039 0.143 0.061 0.306 0.061 0.475 0 0.026-0 0.051-0.002 0.077l0-0.004zM2.409 11.761h6.031v19.552h-6.031v-19.552zM8.93 5.487c0 1.95-1.583 3.533-3.473 3.593-1.899-0.068-3.412-1.624-3.412-3.533s1.513-3.465 3.406-3.533l0.006-0c1.89-0.060 3.473 1.523 3.473 3.473z"></path>
</symbol>
<symbol id="icon-hubspot" viewBox="0 0 113 32">
<path fill="#b9b9b9" style="fill: var(--color4, #b9b9b9)" d="M12.221 5.172v8.809h-8.289v-8.809h-3.932v21.029h3.934v-8.523h8.286v8.523h3.935v-21.029h-3.934zM28.747 19.404c0 0.843-0.343 1.651-0.954 2.247-0.593 0.576-1.402 0.931-2.295 0.931-0.002 0-0.005 0-0.007 0h0c-0.863 0-1.691-0.335-2.301-0.931-0.587-0.57-0.952-1.366-0.954-2.247v-9.009h-3.731v9.008c0 1.808 0.735 3.54 2.044 4.818 1.271 1.235 3.007 1.996 4.922 1.996 0.005 0 0.009 0 0.014 0h-0.001c0.004 0 0.009 0 0.013 0 1.915 0 3.651-0.761 4.924-1.998l-0.002 0.002c1.258-1.222 2.040-2.928 2.044-4.818v-9.008h-3.719v9.008zM56.395 11.324c0-1.847 1.252-2.432 2.621-2.432 1.105 0 2.564 0.821 3.519 1.817l2.443-2.812c-1.22-1.611-3.694-2.725-5.72-2.725-4.049 0-6.976 2.315-6.976 6.153 0 7.12 8.912 4.859 8.912 8.845 0 1.228-1.222 2.313-2.621 2.313-2.207 0-2.922-1.052-3.936-2.167l-2.713 2.754c1.735 2.078 3.876 3.134 6.438 3.134 3.846 0 6.94-2.342 6.94-6.005 0-7.904-8.914-5.448-8.914-8.875h0.007zM111.536 22.841c-2.204 0-2.832-0.931-2.832-2.357v-6.314h3.428v-3.2h-3.428v-4.219l-3.783 1.658v12.861c0 3.29 2.325 4.948 5.512 4.948 0.038 0.001 0.082 0.001 0.127 0.001 0.482 0 0.955-0.043 1.414-0.125l-0.048 0.007 0.923-3.317c-0.416 0.027-0.894 0.056-1.313 0.056v0.003zM42.95 10.502c-1.848 0-3.138 0.524-4.386 1.718v-6.921h-3.737v12.829c0 4.802 3.556 8.092 7.552 8.092 4.433 0 8.333-3.349 8.333-7.857 0-4.453-3.589-7.858-7.762-7.858v-0.003zM42.928 22.548c-0.558 0-1.109-0.107-1.624-0.315-0.534-0.219-0.991-0.523-1.376-0.899l0.001 0.001c-0.394-0.384-0.707-0.841-0.92-1.343-0.204-0.468-0.322-1.012-0.322-1.584s0.119-1.117 0.332-1.611l-0.010 0.026c0.226-0.523 0.537-0.97 0.919-1.342l0.001-0.001c0.393-0.384 0.861-0.689 1.376-0.898 0.48-0.199 1.037-0.315 1.62-0.315 0.001 0 0.002 0 0.002 0h-0c1.125 0 2.203 0.436 2.999 1.212 0.764 0.743 1.239 1.779 1.242 2.927v0c-0.002 1.149-0.478 2.186-1.242 2.927l-0.001 0.001c-0.772 0.75-1.827 1.212-2.99 1.212-0.003 0-0.006 0-0.009 0h0zM83.534 18.171c0-4.518-3.891-7.858-8.333-7.858-3.995 0-7.552 3.29-7.552 8.092v12.837h3.737v-6.93c1.245 1.192 2.537 1.719 4.384 1.719 4.173 0 7.762-3.406 7.762-7.859h0.002zM79.995 18.126c-0.003 1.148-0.478 2.185-1.242 2.927l-0.001 0.001c-0.772 0.75-1.827 1.212-2.99 1.212-0.003 0-0.006 0-0.009 0h0c-1.125 0-2.203-0.436-2.999-1.212-0.764-0.743-1.239-1.779-1.242-2.927v-0c0-1.098 0.447-2.151 1.243-2.928 0.772-0.75 1.827-1.212 2.99-1.212 0.003 0 0.006 0 0.009 0h-0c1.125 0 2.203 0.436 2.999 1.212 0.764 0.743 1.24 1.78 1.242 2.928v0z"></path>
<path fill="#b9b9b9" style="fill: var(--color4, #b9b9b9)" d="M95.609 10.136v-3.666c0.501-0.231 0.912-0.586 1.205-1.025l0.007-0.011c0.283-0.425 0.452-0.947 0.455-1.508v-0.084c0-1.559-1.295-2.823-2.891-2.823h-0.087c-0.766 0-1.502 0.297-2.044 0.827-0.521 0.506-0.845 1.214-0.847 1.997v0.084c0.003 0.535 0.16 1.058 0.455 1.509s0.716 0.809 1.211 1.036v3.666c-1.491 0.227-2.813 0.821-3.911 1.687l0.018-0.013-10.298-7.831c0.073-0.259 0.112-0.525 0.115-0.792 0-0.002 0-0.003 0-0.005 0-0.659-0.204-1.27-0.552-1.774l0.007 0.010c-0.361-0.521-0.858-0.925-1.439-1.165l-0.022-0.008c-0.37-0.154-0.8-0.244-1.252-0.244-0.223 0-0.441 0.022-0.652 0.064l0.021-0.004c-0.655 0.128-1.224 0.435-1.67 0.868l0.001-0.001c-0.457 0.444-0.768 1.010-0.894 1.627-0.040 0.188-0.063 0.404-0.063 0.625 0 0.438 0.091 0.855 0.254 1.233l-0.008-0.020c0.245 0.582 0.662 1.079 1.198 1.43 0.51 0.337 1.136 0.538 1.809 0.538 0 0 0 0 0 0v0c0.59-0.003 1.142-0.16 1.62-0.434l-0.016 0.008 10.141 7.705c-0.855 1.241-1.365 2.778-1.365 4.433 0 0.036 0 0.072 0.001 0.108l-0-0.005c0.026 1.692 0.58 3.249 1.505 4.52l-0.016-0.023-3.084 3.012c-0.23-0.074-0.494-0.119-0.769-0.122l-0.002-0c-0.529 0-1.046 0.154-1.486 0.442s-0.783 0.695-0.985 1.172c-0.128 0.295-0.203 0.638-0.203 0.999 0 0.181 0.019 0.357 0.054 0.527l-0.003-0.017c0.103 0.506 0.358 0.972 0.731 1.337 0.375 0.366 0.851 0.614 1.37 0.715s1.057 0.049 1.545-0.148c0.496-0.202 0.904-0.534 1.196-0.952l0.006-0.009c0.282-0.406 0.451-0.909 0.452-1.451v-0c-0.004-0.27-0.049-0.528-0.13-0.77l0.005 0.018 3.051-2.98c0.951 0.72 2.090 1.247 3.329 1.499l0.053 0.009c0.492 0.102 1.057 0.16 1.636 0.16 0.739 0 1.456-0.095 2.139-0.274l-0.059 0.013c1.27-0.33 2.375-0.914 3.305-1.699l-0.012 0.010c0.932-0.787 1.676-1.766 2.174-2.879l0.020-0.051c0.417-0.929 0.66-2.013 0.66-3.154 0-1.438-0.386-2.787-1.060-3.947l0.020 0.038c-0.631-1.089-1.47-1.989-2.469-2.672l-0.028-0.018c-0.98-0.671-2.148-1.145-3.409-1.336l-0.046-0.006zM94.343 22.193c-0.034 0.001-0.075 0.002-0.116 0.002-0.552 0-1.079-0.104-1.564-0.292l0.029 0.010c-0.547-0.211-1.015-0.51-1.411-0.886l0.002 0.002c-0.394-0.374-0.713-0.823-0.935-1.324l-0.010-0.026c-0.21-0.473-0.332-1.024-0.332-1.604s0.122-1.131 0.342-1.629l-0.010 0.026c0.232-0.528 0.551-0.976 0.944-1.349l0.002-0.002c0.404-0.384 0.883-0.686 1.409-0.885 0.456-0.179 0.983-0.282 1.535-0.282 0.040 0 0.081 0.001 0.121 0.002l-0.006-0c1.132 0.037 2.147 0.51 2.888 1.255l0 0c0.73 0.734 1.183 1.745 1.186 2.861v0.001c0 1.068-0.423 2.094-1.182 2.862-0.741 0.746-1.755 1.22-2.88 1.259l-0.007 0z"></path>
</symbol>
<symbol id="icon-email" viewBox="0 0 32 32">
<path d="M26.664 5.334h-21.334c-1.466 0-2.652 1.2-2.652 2.666l-0.014 16c0 1.466 1.2 2.666 2.666 2.666h21.334c1.466 0 2.666-1.2 2.666-2.666v-16c0-1.466-1.2-2.666-2.666-2.666zM26.664 10.666l-10.666 6.666-10.668-6.666v-2.666l10.67 6.666 10.664-6.666v2.666z"></path>
</symbol>
<symbol id="icon-map" viewBox="0 0 32 32">
<path fill="#f0e714" style="fill: var(--color1, #f0e714)" d="M5.868 2.349c-2.88 1.286-5.327 2.405-5.435 2.485s-0.25 0.257-0.315 0.394c-0.108 0.229-0.118 1.29-0.118 13.049 0 11.717 0.010 12.82 0.117 13.046 0.162 0.341 0.534 0.607 0.91 0.65 0.286 0.031 0.705-0.14 5.335-2.199l5.024-2.232 4.45 2.224c3.402 1.701 4.511 2.225 4.71 2.225 0.189 0 1.736-0.655 5.518-2.333 2.891-1.283 5.357-2.407 5.479-2.496 0.493-0.362 0.456 0.726 0.456-13.457 0.001-11.717-0.009-12.82-0.117-13.045-0.178-0.347-0.51-0.593-0.903-0.648l-0.006-0.001c-0.287-0.032-0.705 0.14-5.335 2.198l-5.025 2.231-4.45-2.225c-3.863-1.931-4.489-2.222-4.753-2.215-0.233 0.007-1.52 0.552-5.542 2.349zM10.286 14.229v11.31l-3.876 1.722c3.133-1.213 1.816-0.619 0.498-0.029l-4.498 1.798c-0.119 0.045-0.125-0.52-0.125-11.27v-11.317l3.946-1.758c2.17-0.967 3.97-1.76 4-1.761s0.054 5.085 0.054 11.306zM29.714 14.229v11.31l-3.875 1.722c3.144-1.218 1.828-0.624 0.509-0.034l-4.509 1.803c-0.119 0.045-0.125-0.52-0.125-11.27v-11.317l3.946-1.758c2.17-0.967 3.97-1.76 4-1.761s0.054 5.085 0.054 11.306zM19.428 17.706v11.284l-6.857-3.428v-22.571l6.857 3.429v11.286z"></path>
</symbol>
<symbol id="icon-laptop" viewBox="0 0 45 32">
<path fill="#f0e714" style="fill: var(--color1, #f0e714)" d="M6.834 0.147c-0.42 0.112-0.782 0.249-1.127 0.418l0.036-0.016c-0.668 0.338-1.67 1.337-2.006 2.003-0.562 1.109-0.555 0.986-0.557 10.723l-0.001 8.96-1.077 0.035c-0.988 0.031-1.105 0.056-1.427 0.302-0.622 0.474-0.676 0.71-0.675 2.927 0.001 2.159 0.103 2.838 0.557 3.736 0.337 0.664 1.338 1.665 2.002 2.001 1.152 0.584 0.161 0.557 19.663 0.558 11.768 0 18.084-0.033 18.435-0.1 0.957-0.198 1.783-0.664 2.42-1.315l0.001-0.001c1.198-1.198 1.443-2.022 1.444-4.878 0.001-2.216-0.053-2.453-0.675-2.927-0.323-0.246-0.438-0.271-1.427-0.302l-1.077-0.033v-8.96c-0.003-9.702 0.001-9.619-0.543-10.694-0.136-0.269-0.498-0.76-0.807-1.092-0.632-0.682-1.624-1.234-2.515-1.4-0.342-0.064-5.857-0.097-15.304-0.092-12.241 0.007-14.869 0.032-15.339 0.147zM37.429 3.427c0.15 0.113 0.366 0.328 0.479 0.48 0.203 0.271 0.206 0.359 0.232 9.311l0.025 9.037h-31.804v-8.888c0-6.055 0.033-8.978 0.106-9.169 0.141-0.371 0.473-0.722 0.838-0.885 0.246-0.11 2.912-0.129 15.075-0.111 14.752 0.021 14.776 0.021 15.051 0.225zM7.95 12.714v7.951h28.622v-15.903h-28.622v7.951zM33.391 12.714v4.771h-22.261v-9.542h22.261v4.771zM15.939 25.75c0.085 0.429 0.474 0.915 0.89 1.113 0.305 0.143 0.921 0.161 5.432 0.161s5.127-0.018 5.432-0.163c0.416-0.196 0.806-0.683 0.89-1.113l0.064-0.314h12.714l-0.033 1.087c-0.038 1.174-0.122 1.395-0.718 1.839l-0.275 0.206h-36.146l-0.275-0.206c-0.594-0.445-0.682-0.665-0.718-1.839l-0.033-1.085h12.714l0.064 0.314z"></path>
</symbol>
<symbol id="icon-schedule" viewBox="0 0 26 32">
<path fill="#f0e714" style="fill: var(--color1, #f0e714)" d="M18.673 0.105c-0.701 0.305-0.922 1.261-0.426 1.848 0.344 0.408 0.517 0.441 2.355 0.441h1.668l-6.696 6.696-2.114-2.108c-1.826-1.818-2.153-2.115-2.396-2.159-0.402-0.073-0.772 0.016-1.049 0.256-0.133 0.113-2.402 2.097-5.043 4.406-5.187 4.537-5.034 4.379-4.942 5.055 0.101 0.755 0.934 1.231 1.625 0.93 0.143-0.062 2.245-1.852 4.671-3.977l4.411-3.864 2.136 2.13c1.846 1.839 2.177 2.136 2.419 2.182 0.695 0.127 0.513 0.279 4.749-3.951l3.906-3.901 0.023 1.768c0.022 1.649 0.033 1.782 0.177 1.974 0.294 0.393 0.533 0.516 1.006 0.516s0.712-0.122 1.006-0.516c0.15-0.2 0.154-0.306 0.175-3.592l0.020-3.386-0.172-0.256c-0.094-0.141-0.286-0.332-0.425-0.425l-0.252-0.17-3.301 0.003c-2.575 0.003-3.351 0.024-3.529 0.103zM19.871 12.079c-0.302 0.134-0.616 0.516-0.67 0.815-0.024 0.132-0.033 4.12-0.022 8.861 0.022 8.573 0.023 8.621 0.176 8.827 0.085 0.113 0.248 0.276 0.361 0.36 0.2 0.15 0.295 0.154 3.040 0.154s2.839-0.005 3.040-0.154c0.113-0.085 0.276-0.248 0.36-0.36 0.153-0.207 0.154-0.235 0.154-9.028s0-8.821-0.154-9.027c-0.107-0.136-0.226-0.254-0.357-0.358l-0.005-0.003c-0.199-0.149-0.311-0.155-2.952-0.171-2.168-0.013-2.793 0.004-2.974 0.084zM10.291 14.474c-0.301 0.133-0.616 0.515-0.67 0.814-0.024 0.134-0.033 3.582-0.022 7.664 0.022 7.364 0.024 7.425 0.176 7.63 0.085 0.113 0.248 0.276 0.361 0.36 0.2 0.15 0.295 0.154 3.040 0.154s2.84-0.005 3.040-0.154c0.113-0.085 0.276-0.248 0.36-0.36 0.153-0.206 0.154-0.248 0.154-7.831s-0.001-7.624-0.154-7.83c-0.107-0.135-0.225-0.254-0.356-0.357l-0.004-0.003c-0.2-0.149-0.311-0.155-2.952-0.171-2.168-0.014-2.792 0.004-2.973 0.084zM23.954 21.555v7.185h-2.395v-14.37h2.395v7.185zM14.374 22.752v5.988h-2.395v-11.975h2.395v5.987zM0.711 18.066c-0.301 0.134-0.616 0.516-0.669 0.816-0.024 0.132-0.034 2.773-0.023 5.867 0.022 5.548 0.024 5.629 0.177 5.833 0.085 0.113 0.247 0.276 0.36 0.36 0.2 0.15 0.296 0.154 3.040 0.154s2.84-0.005 3.040-0.154c0.113-0.085 0.276-0.248 0.36-0.36 0.152-0.205 0.154-0.265 0.154-6.034s-0.002-5.829-0.154-6.033c-0.107-0.136-0.225-0.254-0.356-0.358l-0.004-0.003c-0.199-0.149-0.311-0.155-2.952-0.171-2.168-0.014-2.793 0.004-2.974 0.083zM4.793 24.549v4.191h-2.393v-8.382h2.394v4.191z"></path>
</symbol>
<symbol id="icon-loudspeaker" viewBox="0 0 32 32">
<path fill="#f0e714" style="fill: var(--color1, #f0e714)" d="M25.468 0.030c-0.064 0.027-2.566 1.41-5.56 3.074l-5.444 3.025h-5.594c-4.776 0-5.661 0.017-6.047 0.118-1.325 0.352-2.347 1.376-2.689 2.677l-0.006 0.026c-0.172 0.66-0.17 8.471 0.003 9.133 0.352 1.325 1.377 2.348 2.678 2.689l0.026 0.006c0.281 0.074 0.802 0.115 1.443 0.115h1.004l1.75 5.256c1.859 5.576 1.84 5.53 2.387 5.736 0.346 0.13 5.527 0.11 5.846-0.023 0.326-0.136 0.648-0.523 0.71-0.853 0.047-0.251-1.106-7.52-1.284-8.093-0.164-0.529-0.812-0.872-1.428-0.756-0.376 0.070-0.838 0.53-0.909 0.904-0.036 0.193 0.105 1.22 0.456 3.32 0.279 1.672 0.507 3.058 0.507 3.081s-0.58 0.041-1.289 0.041h-1.288l-2.87-8.613h6.594l5.483 3.055c5.4 3.008 5.489 3.054 5.919 3.057 0.472 0.002 0.72-0.126 1.020-0.528 0.153-0.205 0.159-0.317 0.18-3.57l0.023-3.36 0.67-0.209c2.123-0.663 3.699-2.468 4.137-4.738 0.57-2.964-1.256-6.018-4.137-6.917l-0.67-0.21-0.022-3.358c-0.022-3.255-0.028-3.365-0.181-3.57-0.264-0.353-0.537-0.511-0.932-0.539-0.204-0.014-0.423-0.003-0.486 0.024zM24.622 13.502v10.218l-8.61-4.784-0.020-4.168c-0.021-4.073-0.025-4.173-0.18-4.38-0.302-0.403-0.547-0.53-1.034-0.53s-0.732 0.127-1.033 0.53c-0.155 0.207-0.16 0.31-0.18 4.13l-0.021 3.918-5.145-0.020c-5.060-0.020-5.148-0.024-5.357-0.18-0.139-0.11-0.261-0.231-0.368-0.365l-0.003-0.005c-0.156-0.209-0.159-0.292-0.159-4.354 0-4.063 0.003-4.146 0.159-4.354 0.087-0.117 0.254-0.284 0.37-0.371 0.21-0.157 0.29-0.16 6.148-0.18l5.935-0.023 4.73-2.641c2.601-1.453 4.738-2.646 4.748-2.65 0.011-0.006 0.020 4.589 0.020 10.209zM27.562 10.252c0.218 0.11 0.593 0.389 0.834 0.618 0.701 0.664 1.137 1.602 1.137 2.642s-0.436 1.977-1.135 2.64l-0.002 0.002c-0.359 0.341-1.1 0.82-1.273 0.82-0.022 0-0.040-1.558-0.040-3.461s0.018-3.461 0.040-3.461c0.023 0 0.22 0.090 0.439 0.201z"></path>
</symbol>
<symbol id="icon-commasleft" viewBox="0 0 45 32">
<path fill="#f37825" style="fill: var(--color6, #f37825)" d="M0 23.853v-7.936h6.736c5.717 0 6.733-0.032 6.733-0.222 0-0.122-0.085-0.765-0.189-1.429-0.467-2.992-2.4-5.962-5.051-7.749-2.077-1.402-4.125-2.154-6.653-2.442l-1.576-0.179v-3.85l1.006 0.002c0.552 0 1.714 0.133 2.578 0.293 3.507 0.646 6.39 2.032 8.938 4.288 2.453 2.171 3.894 4.363 4.846 7.371 0.365 1.152 0.379 1.515 0.434 10.491l0.056 9.296h-17.858v-7.936zM26.939 23.853v-7.936h13.344l-0.093-1.219c-0.112-1.43-0.861-3.507-1.728-4.784-2.277-3.349-6.056-5.488-10.43-5.904l-1.093-0.104v-3.904l1.531 0.091c2.155 0.13 4.022 0.602 6.253 1.578 4.781 2.093 8.067 5.667 9.501 10.338l0.459 1.498 0.059 9.141 0.058 9.141h-17.861v-7.936zM13.469 23.93v-3.968h-8.92v7.936h8.92v-3.968zM40.234 23.93v-3.968h-8.922v7.936h8.922v-3.968z"></path>
</symbol>
<symbol id="icon-commasright" viewBox="0 0 45 32">
<path fill="#f37825" style="fill: var(--color6, #f37825)" d="M44.8 23.853v-7.936h-6.736c-5.717 0-6.734-0.032-6.734-0.222 0-0.122 0.086-0.765 0.19-1.429 0.467-2.992 2.402-5.96 5.051-7.749 2.077-1.402 4.125-2.154 6.653-2.442l1.576-0.179v-3.85l-1.006 0.002c-0.552 0-1.714 0.133-2.579 0.293-3.507 0.646-6.39 2.032-8.938 4.288-2.451 2.171-3.893 4.363-4.845 7.371-0.365 1.152-0.379 1.515-0.434 10.491l-0.056 9.296h17.858v-7.936zM17.861 23.853v-7.936h-13.344l0.093-1.219c0.112-1.43 0.861-3.507 1.728-4.784 2.277-3.349 6.056-5.488 10.43-5.904l1.093-0.104v-3.904l-1.531 0.091c-2.155 0.13-4.022 0.602-6.253 1.578-4.781 2.093-8.067 5.667-9.501 10.338l-0.459 1.498-0.058 9.141-0.059 9.141h17.861v-7.936zM31.33 23.93v-3.968h8.922v7.936h-8.922v-3.968zM4.566 23.93v-3.968h8.922v7.936h-8.922v-3.968z"></path>
</symbol>
<symbol id="icon-atlassian" viewBox="0 0 262 32">
<path fill="#b9b9b9" style="fill: var(--color4, #b9b9b9)" d="M143.552 12.845c0 3.798 1.807 6.845 8.87 8.179 4.216 0.863 5.098 1.533 5.098 2.909 0 1.377-0.882 2.202-3.876 2.202-3.764-0.067-7.282-1.065-10.35-2.772l0.113 0.058v6.219c2.127 1.020 4.936 2.163 10.175 2.163 7.388 0 10.318-3.224 10.318-8.022l-20.346-10.936zM163.898 23.78c0-4.522-2.446-6.645-9.354-8.102-3.814-0.826-4.739-1.651-4.739-2.848 0-1.496 1.366-2.122 3.876-2.122 3.051 0 6.061 0.907 8.914 2.165v-5.931c-2.453-1.12-5.32-1.773-8.34-1.773-0.134 0-0.267 0.001-0.4 0.004l0.020-0c-6.826 0-10.358 2.909-10.358 7.67zM244.070 31.41v-19.705l2.369 5.231 7.95 14.474h7.064v-25.842h-5.621v16.68l-2.126-4.842-6.386-11.839h-8.87v25.842h5.619zM196.562 5.568h6.143v25.842h-6.143v-25.842zM189.475 23.782c0-4.525-2.446-6.646-9.355-8.103-3.812-0.826-4.737-1.651-4.737-2.848 0-1.496 1.366-2.122 3.875-2.122 3.053 0 6.061 0.907 8.914 2.165v-5.931c-2.452-1.12-5.319-1.773-8.339-1.773-0.134 0-0.267 0.001-0.4 0.004l0.020-0c-6.827 0-10.358 2.909-10.358 7.67 0 3.798 1.807 6.845 8.871 8.179 4.214 0.863 5.096 1.533 5.096 2.909 0 1.377-0.882 2.202-3.876 2.202-3.764-0.067-7.282-1.065-10.35-2.772l0.113 0.058v6.219c2.127 1.020 4.938 2.163 10.175 2.163 7.388 0 10.319-3.224 10.319-8.022zM108.466 31.41l1.987-5.583h-8.429v-20.259h-6.183v25.842h12.626zM77.722 11.155v20.255h6.182v-20.255h7.306v-5.587h-20.313v5.587h6.826zM61.934 5.568h-8.1l-9.205 25.842h7.048l1.29-4.353c3.215 0.928 6.637 0.928 9.853 0l1.304 4.353h7.025l-9.215-25.842zM57.884 22.4c-0.006 0-0.012 0-0.019 0-1.202 0-2.363-0.173-3.459-0.496l0.086 0.022 3.392-11.283 3.392 11.283c-1.010 0.301-2.171 0.474-3.373 0.474-0.007 0-0.013 0-0.020-0h0.001zM130.229 5.568h-8.1l-9.205 25.842h7.025l1.313-4.353c3.21 0.925 6.623 0.925 9.834 0l1.304 4.353h7.025l-9.195-25.842zM126.179 22.4c-0.006 0-0.012 0-0.019 0-1.201 0-2.363-0.173-3.459-0.496l0.086 0.022 3.392-11.283 3.392 11.283c-1.010 0.301-2.171 0.474-3.373 0.474-0.007 0-0.013 0-0.020-0h0.001zM224.835 5.568h-8.1l-9.205 25.842h7.025l1.313-4.353c1.473 0.44 3.165 0.693 4.917 0.693s3.444-0.253 5.043-0.725l-0.126 0.032 1.304 4.353h7.025l-9.195-25.842zM220.785 22.4c-0.005 0-0.012 0-0.018 0-1.202 0-2.363-0.173-3.46-0.496l0.087 0.022 3.392-11.283 3.391 11.283c-1.010 0.301-2.171 0.474-3.372 0.474-0.007 0-0.013 0-0.020-0h0.001zM9.223 14.656c-0.146-0.167-0.36-0.273-0.598-0.273-0.028 0-0.056 0.001-0.083 0.004l0.003-0c-0.218 0.041-0.395 0.184-0.482 0.377l-0.002 0.004-7.986 15.642c-0.047 0.090-0.075 0.196-0.075 0.309 0 0.257 0.144 0.481 0.355 0.595l0.004 0.002c0.104 0.057 0.223 0.088 0.341 0.088h11.121c0.004 0 0.008 0 0.012 0 0.267 0 0.497-0.153 0.61-0.376l0.002-0.004c2.337-4.725 0.89-12.065-3.221-16.369zM32 30.417c-0.15-0.292-14.963-29.336-15.328-30.059-0.097-0.205-0.297-0.346-0.531-0.357l-0.001-0h-0.025c-0.269 0.015-0.5 0.164-0.628 0.382l-0.002 0.004c-4.017 6.233-4.472 13.76-1.217 20.132l5.361 10.504c0.114 0.232 0.349 0.388 0.62 0.388 0.003 0 0.005-0 0.008-0h11.119c0.249-0 0.467-0.129 0.594-0.323l0.002-0.003c0.066-0.102 0.105-0.227 0.105-0.361 0-0.112-0.027-0.218-0.076-0.311l0.002 0.004z"></path>
</symbol>
<symbol id="icon-star" viewBox="0 0 27 32">
<path fill="#f37825" style="fill: var(--color6, #f37825)" d="M12.617 1.566c0.313-1.106 1.881-1.106 2.194 0l2.091 7.321c0.141 0.483 0.579 0.829 1.099 0.829 0.098 0 0.194-0.012 0.285-0.036l-0.008 0.002 7.387-1.851c1.115-0.279 1.897 1.077 1.097 1.904l-5.294 5.47c-0.199 0.205-0.322 0.486-0.322 0.795s0.123 0.59 0.323 0.796l-0-0 5.296 5.467c0.8 0.827 0.016 2.183-1.099 1.904l-7.387-1.851c-0.083-0.022-0.179-0.034-0.277-0.034-0.52 0-0.958 0.347-1.097 0.821l-0.002 0.008-2.089 7.321c-0.315 1.106-1.883 1.106-2.199 0l-2.089-7.321c-0.141-0.483-0.579-0.829-1.099-0.829-0.098 0-0.194 0.012-0.285 0.036l0.008-0.002-7.387 1.851c-1.115 0.279-1.897-1.077-1.097-1.904l5.296-5.47c0.199-0.205 0.322-0.486 0.322-0.795s-0.123-0.59-0.322-0.796l0 0-5.298-5.465c-0.8-0.827-0.016-2.183 1.099-1.904l7.387 1.851c0.083 0.022 0.179 0.034 0.277 0.034 0.52 0 0.958-0.347 1.097-0.821l0.002-0.008 2.089-7.323z"></path>
</symbol>
<symbol id="icon-ministar" viewBox="0 0 32 32">
<path fill="#f0e714" style="fill: var(--color1, #f0e714)" d="M14.941 0.98c0.363-0.983 1.754-0.983 2.118 0l3.591 9.704c0.117 0.31 0.358 0.551 0.66 0.665l0.008 0.003 9.703 3.591c0.983 0.363 0.983 1.754 0 2.118l-9.704 3.591c-0.31 0.117-0.551 0.358-0.665 0.66l-0.003 0.008-3.591 9.703c-0.363 0.983-1.754 0.983-2.118 0l-3.591-9.704c-0.117-0.31-0.358-0.551-0.66-0.665l-0.008-0.003-9.702-3.591c-0.983-0.363-0.983-1.754 0-2.118l9.704-3.591c0.31-0.117 0.551-0.358 0.665-0.66l0.003-0.008 3.591-9.703z"></path>
</symbol>
<symbol id="icon-uimprocess" viewBox="0 0 32 32">
<path fill="#f0e714" style="fill: var(--color1, #f0e714)" d="M11.5 11.333h-6c-0.736 0-1.333-0.597-1.333-1.333v0-6c0-0.736 0.597-1.333 1.333-1.333s1.333 0.597 1.333 1.333v0 4.666h4.666c0.736 0 1.334 0.597 1.334 1.334s-0.597 1.334-1.334 1.334v0z"></path>
<path fill="#f0e714" style="fill: var(--color1, #f0e714)" d="M28 17.333c-0.736-0.001-1.332-0.597-1.333-1.333v-0c0-0.002 0-0.004 0-0.006 0-5.887-4.773-10.66-10.66-10.66-3.926 0-7.357 2.123-9.207 5.283l-0.027 0.050c-0.235 0.401-0.664 0.665-1.154 0.665-0.736 0-1.333-0.597-1.333-1.333 0-0.246 0.067-0.476 0.183-0.674l-0.003 0.006c2.347-4.011 6.635-6.663 11.541-6.663 7.36 0 13.327 5.967 13.327 13.327 0 0.001 0 0.003 0 0.004v-0c0 0.736-0.597 1.333-1.333 1.333v0zM26.5 29.333c-0.736-0.001-1.332-0.597-1.333-1.333v-4.667h-4.667c-0.714-0.029-1.282-0.614-1.282-1.333s0.568-1.304 1.28-1.333l0.003-0h6c0.736 0 1.333 0.597 1.333 1.333v0 6c0 0.736-0.597 1.333-1.333 1.333v0z"></path>
<path fill="#f0e714" style="fill: var(--color1, #f0e714)" d="M16 29.333c-7.36-0.010-13.323-5.973-13.333-13.332v-0.001c0-0.736 0.597-1.334 1.333-1.334s1.333 0.597 1.333 1.334v0c0 0.001 0 0.003 0 0.004 0 5.887 4.773 10.66 10.66 10.66 3.926 0 7.356-2.122 9.206-5.282l0.027-0.050c0.234-0.404 0.664-0.671 1.157-0.671 0.736 0 1.332 0.596 1.332 1.332 0 0.064-0.005 0.127-0.013 0.189l0.001-0.007c-0.023 0.174-0.080 0.341-0.168 0.493-2.353 4.003-6.633 6.651-11.533 6.665h-0.002z"></path>
</symbol>
<symbol id="icon-logo" viewBox="0 0 24 32">
<path fill="#fff" style="fill: var(--color7, #fff)" d="M19.034 4.055c1.048 0 1.896-0.842 1.896-1.88-0.005-1.039-0.848-1.88-1.888-1.88-0.003 0-0.006 0-0.009 0h0c-1.048 0-1.897 0.842-1.897 1.88 0 0.662 0.345 1.245 0.867 1.58-5.305 9.457-9.72 10.221-17.448 0.611-0.042-0.052-0.105-0.084-0.176-0.084-0.041 0-0.080 0.011-0.113 0.030l0.001-0.001c-0.059 0.035-0.098 0.097-0.104 0.168l-0 0.001c-0.004 0.051 0.008 0.103 0.040 0.147 8.152 11.347 8.474 17.179 6.911 27.114-0.001 0.008-0.002 0.017-0.002 0.026 0 0.095 0.077 0.172 0.172 0.172 0.082 0 0.15-0.057 0.168-0.134l0-0.001c2.56-11.522 6.541-14.512 16.484-15.693 0.087-0.010 0.154-0.082 0.155-0.171v-0c0-0.107-0.104-0.187-0.211-0.168-10.571 1.885-10.808-1.733-5.526-11.839 0.211 0.080 0.438 0.124 0.678 0.124z"></path>
</symbol>
<symbol id="icon-creativelogo" viewBox="0 0 148 32">
<path fill="#fff" style="fill: var(--color7, #fff)" d="M10.069 30.236c-2.032 0-3.78-0.475-5.246-1.426-1.467-0.949-2.596-2.258-3.385-3.929-0.791-1.666-1.186-3.573-1.186-5.716 0-2.18 0.405-4.103 1.214-5.772 0.818-1.676 1.956-2.987 3.413-3.927 1.465-0.949 3.177-1.426 5.132-1.426 1.524 0 2.896 0.281 4.117 0.839 1.207 0.545 2.215 1.342 2.992 2.33l0.013 0.017c0.758 0.978 1.277 2.178 1.448 3.487l0.004 0.037h-3.328c-0.254-0.978-0.818-1.845-1.692-2.599-0.864-0.764-2.030-1.147-3.497-1.147-1.298 0-2.436 0.336-3.413 1.006-0.969 0.661-1.724 1.598-2.27 2.809-0.537 1.202-0.804 2.613-0.804 4.236 0 1.659 0.263 3.102 0.789 4.332 0.535 1.228 1.287 2.185 2.258 2.864 0.978 0.681 2.123 1.020 3.44 1.020 0.864 0 1.65-0.149 2.356-0.446 0.709-0.299 1.307-0.736 1.786-1.28l0.005-0.005c0.489-0.56 0.836-1.232 1.044-2.014h3.328c-0.19 1.304-0.685 2.465-1.41 3.447l0.015-0.021c-0.76 1.020-1.74 1.835-2.873 2.383l-0.046 0.020c-1.204 0.587-2.604 0.88-4.203 0.88zM23.452 29.788v-21.467h3.216v3.243h0.226c0.395-1.063 1.109-1.925 2.144-2.587 0.965-0.623 2.144-0.993 3.41-0.993 0.031 0 0.061 0 0.092 0.001l-0.005-0c0.245 0 0.551 0.005 0.917 0.014s0.644 0.023 0.832 0.041v3.355c-0.196-0.043-0.461-0.086-0.728-0.12l-0.048-0.005c-0.371-0.063-0.799-0.1-1.235-0.1-0.007 0-0.014 0-0.021 0h0.001c-1.052 0-1.991 0.22-2.82 0.658-0.818 0.428-1.467 1.024-1.947 1.788-0.469 0.756-0.706 1.618-0.706 2.587v13.584h-3.328zM46.652 30.236c-2.087 0-3.888-0.457-5.401-1.369-1.504-0.924-2.667-2.21-3.484-3.858-0.809-1.659-1.212-3.588-1.212-5.787s0.404-4.137 1.212-5.813c0.818-1.689 1.956-3.001 3.413-3.943 1.467-0.949 3.177-1.426 5.134-1.426 1.127 0 2.24 0.187 3.342 0.56 1.1 0.373 2.101 0.978 3.004 1.817 0.901 0.828 1.621 1.929 2.156 3.298 0.537 1.369 0.804 3.058 0.804 5.060v1.397h-16.697v-2.85h13.312c0-1.212-0.244-2.293-0.732-3.243-0.472-0.94-1.175-1.704-2.035-2.237l-0.023-0.014c-0.884-0.551-1.927-0.825-3.131-0.825-1.326 0-2.473 0.325-3.442 0.978-0.944 0.633-1.697 1.483-2.198 2.48l-0.017 0.037c-0.489 0.956-0.775 2.086-0.775 3.283 0 0.015 0 0.029 0 0.044v-0.002 1.902c0 1.621 0.283 2.996 0.846 4.124 0.574 1.116 1.369 1.97 2.382 2.556 1.017 0.578 2.197 0.866 3.541 0.866 0.875 0 1.664-0.121 2.37-0.363 0.719-0.251 1.335-0.633 1.849-1.12l-0.002 0.002c0.516-0.503 0.917-1.127 1.198-1.874l3.216 0.896c-0.354 1.117-0.941 2.073-1.708 2.852l0.001-0.001c-0.818 0.815-1.806 1.461-2.905 1.881l-0.057 0.019c-1.173 0.446-2.496 0.67-3.963 0.67zM67.061 30.293c-1.374 0-2.62-0.258-3.739-0.77-1.099-0.505-2.001-1.274-2.652-2.229l-0.014-0.022c-0.658-0.987-0.987-2.18-0.987-3.579 0-1.228 0.245-2.226 0.734-2.99 0.487-0.767 1.149-1.383 1.932-1.803l0.028-0.014c0.818-0.437 1.721-0.764 2.708-0.978 0.997-0.224 1.998-0.402 3.004-0.532 1.316-0.167 2.382-0.293 3.202-0.377 0.827-0.094 1.429-0.249 1.804-0.462 0.386-0.213 0.58-0.587 0.58-1.118v-0.11c0-1.38-0.38-2.452-1.143-3.216-0.752-0.764-1.895-1.145-3.428-1.145-1.588 0-2.834 0.345-3.737 1.033-0.903 0.69-1.536 1.426-1.902 2.21l-3.161-1.12c0.565-1.303 1.316-2.318 2.258-3.045 0.875-0.692 1.912-1.222 3.043-1.524l0.059-0.014c0.997-0.28 2.142-0.443 3.325-0.448h0.003c0.695 0 1.493 0.084 2.398 0.252 0.912 0.158 1.79 0.489 2.636 0.992 0.855 0.503 1.564 1.262 2.13 2.279 0.564 1.013 0.846 2.375 0.846 4.080v14.144h-3.328v-2.907h-0.169c-0.226 0.466-0.603 0.965-1.129 1.495-0.526 0.533-1.227 0.983-2.101 1.356s-1.941 0.56-3.2 0.56zM67.568 27.33c1.316 0 2.425-0.256 3.328-0.768 0.912-0.514 1.598-1.175 2.059-1.986 0.469-0.811 0.706-1.664 0.706-2.558v-3.019c-0.142 0.167-0.452 0.32-0.932 0.462-0.43 0.123-0.982 0.244-1.544 0.336l-0.091 0.012c-0.612 0.092-1.209 0.178-1.792 0.252-0.885 0.093-1.363 0.152-1.84 0.215l0.445-0.048c-0.909 0.115-1.729 0.306-2.515 0.57l0.090-0.026c-0.713 0.22-1.321 0.602-1.805 1.104l-0.001 0.001c-0.452 0.484-0.676 1.145-0.676 1.984 0 1.147 0.427 2.012 1.282 2.599 0.866 0.578 1.961 0.868 3.287 0.868zM92.484 8.32v2.795h-11.225v-2.793h11.225zM84.53 3.175h3.328v20.462c0 0.932 0.137 1.63 0.409 2.098 0.283 0.455 0.64 0.764 1.072 0.921 0.443 0.149 0.907 0.224 1.397 0.224 0.366 0 0.667-0.018 0.901-0.055l0.565-0.112 0.676 2.964c-0.259 0.093-0.576 0.18-0.901 0.244l-0.043 0.007c-0.422 0.090-0.907 0.142-1.404 0.142-0.047 0-0.094-0-0.141-0.001l0.007 0c-1.002-0.003-1.952-0.224-2.806-0.618l0.042 0.017c-0.91-0.415-1.662-1.039-2.216-1.815l-0.011-0.017c-0.583-0.821-0.875-1.854-0.875-3.104v-21.355zM97.49 29.788v-21.468h3.33v21.467h-3.328zM99.184 4.74c-0.649 0-1.209-0.217-1.678-0.656-0.427-0.386-0.693-0.942-0.693-1.56 0-0.007 0-0.013 0-0.020v0.001c0-0.615 0.231-1.141 0.693-1.579 0.469-0.439 1.029-0.658 1.678-0.658 0.647 0 1.204 0.219 1.664 0.658 0.469 0.437 0.704 0.964 0.704 1.579s-0.235 1.141-0.704 1.579c-0.419 0.407-0.991 0.658-1.622 0.658-0.015 0-0.029-0-0.044-0l0.002 0zM124.629 8.32l-8.011 21.467h-3.385l-8.011-21.465h3.609l5.982 17.108h0.224l5.98-17.108h3.609zM137.328 30.235c-2.087 0-3.888-0.457-5.401-1.369-1.506-0.924-2.667-2.21-3.484-3.858-0.807-1.659-1.212-3.588-1.212-5.787s0.405-4.137 1.214-5.813c0.818-1.689 1.956-3.001 3.413-3.943 1.467-0.949 3.177-1.426 5.132-1.426 1.197 0.002 2.346 0.207 3.415 0.582l-0.072-0.022c1.1 0.373 2.101 0.978 3.004 1.817 0.901 0.828 1.621 1.929 2.156 3.298 0.537 1.369 0.805 3.058 0.805 5.060v1.397h-16.699v-2.848h13.314c0-1.212-0.245-2.293-0.734-3.243-0.472-0.94-1.175-1.704-2.035-2.237l-0.024-0.014c-0.884-0.551-1.927-0.825-3.131-0.825-1.326 0-2.473 0.325-3.442 0.978-0.943 0.633-1.695 1.483-2.196 2.48l-0.017 0.037c-0.489 0.956-0.775 2.085-0.775 3.282 0 0.015 0 0.030 0 0.045v-0.002 1.902c0 1.621 0.281 2.996 0.846 4.124 0.572 1.116 1.369 1.97 2.382 2.556 1.017 0.578 2.196 0.866 3.54 0.866 0.875 0 1.666-0.121 2.37-0.363 0.719-0.251 1.336-0.632 1.851-1.12l-0.002 0.002c0.516-0.503 0.916-1.127 1.198-1.874l3.216 0.896c-0.354 1.117-0.941 2.073-1.708 2.852l0.001-0.001c-0.818 0.815-1.806 1.461-2.905 1.881l-0.057 0.019c-1.175 0.446-2.496 0.67-3.964 0.67z"></path>
</symbol>
<symbol id="icon-arrow" viewBox="0 0 44 32">
<path fill="#f0e714" style="fill: var(--color1, #f0e714)" d="M0 16c0-0.428 0.163-0.841 0.457-1.143 0.279-0.29 0.669-0.471 1.102-0.471h36.754l-9.804-10.17c-0.285-0.296-0.46-0.699-0.46-1.143s0.176-0.847 0.461-1.144l-0 0.001c0.279-0.289 0.67-0.468 1.103-0.468s0.823 0.179 1.102 0.467l0 0 12.468 12.928c0.281 0.291 0.454 0.688 0.454 1.125 0 0.007-0 0.013-0 0.020v-0.001c-0.001 0.443-0.175 0.846-0.457 1.144l0.001-0.001-12.468 12.928c-0.279 0.289-0.67 0.468-1.103 0.468s-0.823-0.179-1.102-0.467l-0-0c-0.285-0.296-0.46-0.699-0.46-1.143s0.176-0.847 0.461-1.144l-0 0.001 9.807-10.17h-36.753c-0 0-0.001 0-0.001 0-0.434 0-0.826-0.181-1.104-0.471l-0.001-0.001c-0.281-0.295-0.454-0.695-0.454-1.135 0-0.003 0-0.006 0-0.009v0z"></path>
</symbol>
<symbol id="icon-facebook" viewBox="0 0 17 32">
<path d="M12.83 2.014c0.503 0.053 0.951 0.053 1.455 0.109 0.337 0 0.672 0.055 1.007 0.111v4.469h-0.39c-0.951 0-1.903 0-2.857 0.055-1.173 0.055-1.847 0.661-1.903 1.82-0.055 1.216 0 2.428 0 3.697h4.983l-0.672 4.966h-4.309v12.745h-5.21v-12.745h-4.365v-4.966h4.367v-4.247c0.055-1.545 0.559-2.98 1.679-4.194 0.841-0.883 1.903-1.378 3.136-1.655 0.335-0.055 0.67-0.111 0.951-0.164h2.127z"></path>
</symbol>
<symbol id="icon-twitter" viewBox="0 0 37 32">
<path d="M1.804 26.801c3.744 0.295 7.2-0.593 10.223-2.971-3.168-0.295-5.327-1.93-6.479-5.051 1.009 0.148 2.016 0.148 3.168-0.148-1.629-0.413-3.009-1.304-4.022-2.514l-0.010-0.012c-1.009-1.337-1.583-2.821-1.583-4.603 1.009 0.443 2.016 0.891 3.166 0.891-1.583-1.189-2.447-2.526-2.88-4.308-0.431-1.782-0.143-3.567 0.721-5.199 3.742 4.603 8.492 7.129 14.398 7.574 0-0.743-0.145-1.337 0-2.080 0.143-2.971 2.304-5.792 5.039-6.535 2.592-0.743 4.894 0 6.767 1.782 0.143 0.148 0.288 0.148 0.431 0.148 1.44-0.295 2.735-0.889 4.175-1.632-0.576 1.634-1.583 2.971-2.88 3.862v0.148c0.576-0.148 1.297-0.295 1.871-0.443 0.578-0.15 1.297-0.448 1.873-0.596-0.862 1.189-1.728 2.375-2.88 3.266-0.431 0.298-0.574 0.596-0.574 1.189 0 3.269-0.721 6.24-2.018 9.209-1.726 3.567-4.030 6.538-7.34 8.615-2.304 1.487-4.896 2.378-7.631 2.823-1.871 0.295-3.742 0.295-5.612 0-2.88-0.891-5.472-1.782-7.921-3.417z"></path>
</symbol>
<symbol id="icon-riselogo" viewBox="0 0 72 32">
<path fill="#f0e714" style="fill: var(--color1, #f0e714)" d="M0.26 31.492v-22.093h5.994v3.854h0.232c0.407-1.372 1.089-2.407 2.047-3.106 0.958-0.71 2.061-1.065 3.309-1.065 0.309 0 0.643 0.019 1.001 0.057 0.359 0.039 0.673 0.092 0.943 0.159v5.436c-0.339-0.096-0.748-0.177-1.166-0.226l-0.038-0.004c-0.42-0.061-0.908-0.097-1.404-0.1l-0.004-0c-0.91 0-1.722 0.196-2.439 0.589-0.703 0.383-1.273 0.93-1.673 1.591l-0.011 0.020c-0.406 0.691-0.609 1.486-0.609 2.388v12.498h-6.183zM16.983 31.492v-22.093h6.183v22.091h-6.184zM20.088 6.552c-0.919 0-1.707-0.302-2.365-0.906-0.649-0.614-0.973-1.347-0.973-2.2 0-0.844 0.324-1.568 0.973-2.173 0.658-0.614 1.446-0.92 2.365-0.92s1.704 0.307 2.351 0.92c0.658 0.605 0.986 1.329 0.986 2.173 0 0.853-0.329 1.587-0.986 2.2-0.648 0.604-1.432 0.906-2.35 0.906zM46.665 15.7l-5.661 0.345c-0.102-0.5-0.321-0.938-0.627-1.3l0.004 0.004c-0.336-0.402-0.759-0.72-1.241-0.926l-0.022-0.008c-0.513-0.239-1.127-0.359-1.843-0.359-0.958 0-1.766 0.201-2.424 0.604-0.658 0.393-0.986 0.92-0.986 1.582 0 0.527 0.213 0.973 0.639 1.337s1.155 0.657 2.191 0.877l4.034 0.806c2.167 0.441 3.783 1.151 4.847 2.129 1.064 0.978 1.597 2.262 1.597 3.854 0 1.448-0.43 2.719-1.292 3.811-0.852 1.092-2.022 1.946-3.512 2.56-1.48 0.605-3.188 0.906-5.122 0.906-2.952 0-5.302-0.608-7.054-1.826-1.741-1.227-2.762-2.895-3.061-5.005l6.080-0.317c0.184 0.892 0.629 1.572 1.335 2.042 0.706 0.46 1.611 0.691 2.714 0.691 1.084 0 1.953-0.206 2.612-0.618 0.668-0.423 1.006-0.964 1.015-1.625-0.009-0.556-0.246-1.012-0.711-1.367-0.463-0.364-1.181-0.642-2.147-0.834l-3.861-0.761c-2.177-0.431-3.797-1.181-4.862-2.244-1.054-1.064-1.581-2.421-1.581-4.070 0-1.42 0.386-2.643 1.161-3.668 0.783-1.026 1.881-1.817 3.294-2.372 1.423-0.557 3.086-0.835 4.993-0.835 2.815 0 5.032 0.59 6.646 1.769 1.625 1.181 2.574 2.786 2.845 4.819zM61.225 31.923c-2.293 0-4.267-0.46-5.921-1.379-1.631-0.926-2.931-2.27-3.778-3.889l-0.025-0.052c-0.889-1.707-1.335-3.725-1.335-6.056 0-2.273 0.446-4.267 1.335-5.983 0.89-1.716 2.143-3.054 3.759-4.012 1.625-0.96 3.531-1.439 5.717-1.439 1.471 0 2.84 0.235 4.107 0.705 1.303 0.47 2.418 1.181 3.34 2.087l-0.001-0.001c0.957 0.93 1.703 2.1 2.234 3.509 0.532 1.4 0.798 3.040 0.798 4.919v1.683h-18.823v-3.797h13.003c0-0.883-0.193-1.664-0.58-2.345-0.384-0.675-0.932-1.218-1.59-1.586l-0.021-0.011c-0.676-0.393-1.465-0.589-2.365-0.589-0.938 0-1.771 0.215-2.497 0.647-0.707 0.417-1.277 0.997-1.671 1.69l-0.012 0.023c-0.393 0.681-0.625 1.497-0.625 2.368 0 0.001 0 0.003 0 0.004v-0 3.61c0 1.092 0.203 2.037 0.61 2.834 0.402 0.778 1.002 1.405 1.734 1.829l0.021 0.011c0.755 0.431 1.65 0.647 2.685 0.647 0.687 0 1.316-0.095 1.887-0.287s1.059-0.48 1.465-0.863c0.406-0.384 0.716-0.854 0.929-1.41l5.718 0.375c-0.291 1.385-0.918 2.592-1.792 3.574l0.007-0.008c-0.889 1.006-2.041 1.793-3.454 2.358-1.402 0.556-3.023 0.834-4.862 0.834z"></path>
</symbol>
</defs>
</svg>
